<svg version="1.2" xmlns="http://www.w3.org/2000/svg" viewBox="0 0 320 75" width="320" height="75">
	<style>
		.s0 { fill: #1c2e35 } 
		.s1 { fill: #445964 } 
	</style>
	<filter id="f0">
		<feFlood flood-color="#ffffff" flood-opacity="1" />
		<feBlend mode="normal" in2="SourceGraphic"/>
		<feComposite in2="SourceAlpha" operator="in" />
	</filter>
	<g filter="url(#f0)">
		<path class="s0" d="m78.01 16.95h5.03l5.71 17.81 5.71-17.81h5.03l-8.7 25.6h-4.08zm-3.06 0h5.21l0.96 19.61v5.98h-6.17zm22.4 0h5.22v25.59h-6.19v-5.97zm18.77 20.81v-7.84q0-0.81-0.22-1.39-0.23-0.58-0.73-0.9-0.49-0.33-1.31-0.33-0.67 0-1.15 0.23-0.47 0.23-0.72 0.68-0.24 0.46-0.24 1.16h-5.93q0-1.31 0.58-2.44 0.6-1.14 1.69-1.99 1.11-0.84 2.64-1.3 1.54-0.47 3.44-0.47 2.27 0 4.05 0.75 1.79 0.76 2.83 2.27 1.03 1.5 1.03 3.76v7.79q0 1.86 0.21 2.83 0.21 0.95 0.6 1.67v0.3h-5.94q-0.42-0.88-0.63-2.14-0.2-1.29-0.2-2.64zm0.72-6.84l0.04 3.17h-2.62q-0.83 0-1.41 0.22-0.56 0.23-0.91 0.64-0.33 0.38-0.49 0.88-0.14 0.49-0.14 1.03 0 0.53 0.24 0.95 0.27 0.41 0.71 0.63 0.44 0.23 0.98 0.23 0.99 0 1.67-0.37 0.7-0.38 1.07-0.93 0.37-0.54 0.37-1.02l1.3 2.43q-0.35 0.7-0.81 1.42-0.43 0.72-1.1 1.34-0.65 0.6-1.6 0.98-0.95 0.37-2.31 0.37-1.75 0-3.23-0.72-1.46-0.72-2.34-2-0.88-1.3-0.88-2.99 0-1.48 0.53-2.64 0.55-1.16 1.64-1.97 1.09-0.81 2.77-1.23 1.69-0.42 3.98-0.42zm18.54-7.4v4.11h-11.46v-4.11zm-9.05-4.73h5.92v17.55q0 0.75 0.18 1.17 0.17 0.41 0.59 0.58 0.44 0.16 1.16 0.16 0.51 0 0.85-0.02 0.33-0.03 0.63-0.08v4.23q-0.76 0.25-1.58 0.37-0.83 0.14-1.76 0.14-1.9 0-3.25-0.6-1.34-0.59-2.04-1.88-0.7-1.28-0.7-3.34zm20.62 24.1q-2.33 0-4.15-0.72-1.83-0.74-3.1-2.02-1.24-1.28-1.91-2.95-0.65-1.67-0.65-3.54v-0.66q0-2.1 0.58-3.87 0.58-1.79 1.72-3.13 1.14-1.34 2.87-2.07 1.72-0.76 4-0.76 2.02 0 3.62 0.65 1.6 0.65 2.71 1.86 1.13 1.22 1.71 2.94 0.59 1.72 0.59 3.87v2.41h-15.54v-3.71h9.76v-0.46q0.02-0.95-0.33-1.62-0.34-0.67-0.99-1.02-0.65-0.35-1.58-0.35-0.97 0-1.6 0.42-0.61 0.42-0.97 1.16-0.33 0.72-0.47 1.67-0.14 0.95-0.14 2.01v0.66q0 1.06 0.28 1.92 0.3 0.86 0.84 1.48 0.57 0.59 1.34 0.93 0.79 0.33 1.79 0.33 1.21 0 2.39-0.45 1.18-0.46 2.02-1.52l2.69 3.2q-0.58 0.83-1.65 1.6-1.05 0.78-2.53 1.27-1.48 0.47-3.3 0.47zm21.51-4.97v-14.4h5.94v19.02h-5.55zm0.56-3.87l1.55-0.03q0 1.92-0.46 3.55-0.46 1.62-1.35 2.81-0.88 1.2-2.18 1.87-1.29 0.65-2.97 0.65-1.41 0-2.59-0.39-1.16-0.4-2-1.25-0.85-0.86-1.32-2.2-0.46-1.35-0.46-3.23v-12.3h5.93v12.33q0 0.64 0.16 1.09 0.15 0.46 0.45 0.78 0.3 0.3 0.74 0.46 0.46 0.14 1.04 0.14 1.33 0 2.09-0.57 0.76-0.56 1.05-1.53 0.32-0.96 0.32-2.18zm18.62 3.15q0-0.49-0.34-0.84-0.31-0.37-1.12-0.67-0.81-0.32-2.27-0.63-1.39-0.3-2.62-0.79-1.21-0.5-2.13-1.2-0.91-0.7-1.44-1.67-0.51-0.97-0.51-2.21 0-1.22 0.51-2.29 0.53-1.09 1.53-1.92 1.02-0.84 2.48-1.31 1.46-0.5 3.32-0.5 2.57 0 4.43 0.79 1.87 0.78 2.87 2.18 1.02 1.39 1.02 3.22h-5.93q0-0.72-0.24-1.23-0.23-0.51-0.76-0.77-0.53-0.28-1.41-0.28-0.61 0-1.12 0.22-0.49 0.23-0.79 0.64-0.3 0.4-0.3 0.95 0 0.38 0.18 0.7 0.19 0.3 0.58 0.56 0.38 0.25 0.98 0.46 0.6 0.19 1.44 0.35 1.92 0.35 3.59 1 1.67 0.65 2.7 1.85 1.06 1.19 1.06 3.22 0 1.26-0.58 2.33-0.58 1.06-1.67 1.87-1.09 0.79-2.62 1.23-1.53 0.44-3.45 0.44-2.72 0-4.6-0.97-1.88-0.98-2.85-2.46-0.95-1.5-0.95-3.03h5.52q0.04 0.88 0.42 1.45 0.41 0.56 1.08 0.82 0.66 0.27 1.54 0.27 0.81 0 1.34-0.23 0.54-0.23 0.82-0.62 0.29-0.4 0.29-0.93zm20.79-20.25h5.03l5.71 17.81 5.71-17.81h5.03l-8.7 25.59h-4.08zm-3.06 0h5.21l0.96 19.62v5.98h-6.17zm22.4 0h5.22v25.59h-6.19v-5.97zm18.78 20.81v-7.84q0-0.81-0.23-1.39-0.23-0.58-0.72-0.9-0.5-0.33-1.32-0.33-0.67 0-1.14 0.23-0.48 0.23-0.72 0.68-0.25 0.46-0.25 1.16h-5.92q0-1.31 0.58-2.44 0.59-1.14 1.68-1.99 1.11-0.84 2.64-1.3 1.55-0.47 3.45-0.47 2.26 0 4.04 0.75 1.79 0.76 2.83 2.27 1.04 1.5 1.04 3.76v7.79q0 1.86 0.21 2.83 0.21 0.95 0.59 1.67v0.3h-5.94q-0.42-0.88-0.63-2.15-0.19-1.28-0.19-2.63zm0.72-6.84l0.03 3.16h-2.62q-0.82 0-1.4 0.23-0.57 0.23-0.92 0.64-0.33 0.38-0.49 0.87-0.14 0.5-0.14 1.04 0 0.53 0.25 0.95 0.26 0.41 0.7 0.63 0.44 0.23 0.98 0.23 0.99 0 1.67-0.37 0.71-0.38 1.08-0.93 0.36-0.54 0.36-1.02l1.31 2.43q-0.36 0.7-0.81 1.42-0.44 0.72-1.11 1.34-0.65 0.6-1.6 0.98-0.95 0.37-2.3 0.37-1.76 0-3.24-0.72-1.46-0.72-2.33-2-0.88-1.3-0.88-2.99 0-1.48 0.52-2.64 0.55-1.16 1.64-1.97 1.09-0.81 2.78-1.23 1.68-0.42 3.97-0.42zm18.54-7.4v4.11h-11.46v-4.11zm-9.05-4.73h5.92v17.54q0 0.76 0.18 1.18 0.18 0.41 0.6 0.58 0.44 0.16 1.16 0.16 0.51 0 0.84-0.02 0.34-0.03 0.63-0.09v4.24q-0.75 0.25-1.58 0.37-0.82 0.14-1.76 0.14-1.89 0-3.25-0.6-1.33-0.59-2.04-1.88-0.7-1.28-0.7-3.34zm21.43 4.73v4.11h-11.46v-4.11zm-9.05-4.73h5.92v17.55q0 0.75 0.17 1.17 0.18 0.41 0.6 0.58 0.44 0.16 1.16 0.16 0.51 0 0.85-0.02 0.33-0.03 0.63-0.08v4.23q-0.76 0.25-1.58 0.37-0.83 0.14-1.76 0.14-1.9 0-3.25-0.6-1.34-0.59-2.04-1.88-0.7-1.28-0.7-3.34zm10.14 14.44v-0.37q0-2.1 0.6-3.85 0.59-1.78 1.75-3.08 1.16-1.3 2.87-2.02 1.7-0.74 3.94-0.74 2.25 0 3.95 0.74 1.72 0.72 2.88 2.02 1.16 1.3 1.76 3.08 0.6 1.75 0.6 3.85v0.37q0 2.07-0.6 3.85-0.6 1.75-1.76 3.07-1.16 1.3-2.86 2.02-1.71 0.72-3.94 0.72-2.23 0-3.95-0.72-1.73-0.72-2.89-2.02-1.16-1.32-1.75-3.07-0.6-1.78-0.6-3.85zm5.92-0.37v0.37q0 1.07 0.16 2 0.16 0.93 0.53 1.63 0.37 0.69 1 1.08 0.63 0.38 1.58 0.38 0.93 0 1.55-0.38 0.63-0.39 1-1.08 0.37-0.7 0.53-1.63 0.16-0.93 0.16-2v-0.37q0-1.04-0.16-1.95-0.16-0.94-0.53-1.64-0.37-0.72-1-1.12-0.64-0.41-1.58-0.41-0.94 0-1.57 0.41-0.61 0.4-0.98 1.12-0.37 0.7-0.53 1.64-0.16 0.91-0.16 1.95zm25.03 4.34q0-0.49-0.33-0.85-0.32-0.36-1.13-0.66-0.81-0.32-2.26-0.64-1.39-0.3-2.62-0.79-1.22-0.49-2.13-1.19-0.91-0.71-1.44-1.67-0.51-0.97-0.51-2.22 0-1.21 0.51-2.28 0.53-1.09 1.53-1.92 1.02-0.84 2.48-1.32 1.46-0.49 3.32-0.49 2.57 0 4.43 0.79 1.86 0.78 2.86 2.18 1.02 1.39 1.02 3.22h-5.92q0-0.72-0.25-1.23-0.22-0.51-0.75-0.78-0.53-0.28-1.41-0.28-0.61 0-1.12 0.23-0.5 0.23-0.79 0.63-0.3 0.41-0.3 0.95 0 0.39 0.17 0.71 0.2 0.3 0.58 0.56 0.39 0.25 0.99 0.46 0.59 0.19 1.44 0.35 1.91 0.35 3.58 1 1.67 0.65 2.71 1.85 1.06 1.19 1.06 3.21 0 1.27-0.58 2.34-0.58 1.06-1.67 1.86-1.09 0.79-2.62 1.23-1.53 0.44-3.45 0.44-2.72 0-4.6-0.96-1.89-0.99-2.85-2.46-0.95-1.5-0.95-3.03h5.52q0.03 0.88 0.42 1.44 0.4 0.57 1.07 0.83 0.67 0.26 1.55 0.26 0.81 0 1.34-0.22 0.54-0.23 0.82-0.62 0.28-0.4 0.28-0.93z"/>
	</g>
	<filter id="f1">
		<feFlood flood-color="#ffffff" flood-opacity="1" />
		<feBlend mode="normal" in2="SourceGraphic"/>
		<feComposite in2="SourceAlpha" operator="in" />
	</filter>
	<g filter="url(#f1)">
		<path class="s1" d="m49.62 11.72l-16.16-10.4c-2.73-1.76-6.13-1.76-8.86 0l-16.17 10.4c-2.73 1.76-4.43 5.04-4.43 8.57v20.79c0 3.52 1.7 6.8 4.43 8.56l16.17 10.41c2.73 1.75 6.13 1.75 8.86 0l16.16-10.41c2.74-1.76 4.44-5.04 4.44-8.56v-20.79c0-3.53-1.7-6.81-4.44-8.57zm0.14 29.36c0 1.81-0.87 3.5-2.28 4.41l-16.17 10.4c-1.41 0.91-3.15 0.91-4.56 0l-16.17-10.4c-1.41-0.91-2.28-2.6-2.28-4.41v-20.79c0-1.82 0.87-3.51 2.28-4.42l16.17-10.4c1.41-0.9 3.15-0.9 4.56 0l16.17 10.4c1.41 0.91 2.28 2.6 2.28 4.42z"/>
		<path class="s1" d="m26.99 28.85l-7.98-7.53c-0.91-0.86-2.26-0.73-3.03 0.28-0.77 1.01-0.65 2.52 0.25 3.38l6.04 5.7-6.04 5.71c-0.9 0.85-1.02 2.36-0.25 3.37 0.77 1.02 2.12 1.14 3.03 0.29l7.98-7.54c1.01-0.96 1.01-2.7 0-3.66z"/>
		<path class="s1" d="m40.44 35.82h-9.67c-1.19 0-2.15 1.07-2.15 2.4 0 1.32 0.96 2.39 2.15 2.39h9.67c1.18 0 2.15-1.07 2.15-2.39 0-1.33-0.97-2.4-2.15-2.4z"/>
	</g>
</svg>